<mxfile host="app.diagrams.net" agent="Mozilla/5.0 (Windows NT 10.0; Win64; x64) AppleWebKit/537.36 (KHTML, like Gecko) Chrome/131.0.0.0 Safari/537.36" version="25.0.3">
  <diagram name="PÃ¡gina-1" id="yVsr3QitTyczPRwQMiDB">
    <mxGraphModel dx="1354" dy="668" grid="1" gridSize="10" guides="1" tooltips="1" connect="1" arrows="1" fold="1" page="1" pageScale="1" pageWidth="827" pageHeight="1169" math="0" shadow="0">
      <root>
        <mxCell id="0" />
        <mxCell id="1" parent="0" />
        <mxCell id="5ps91yO-LM5b6C7GNlMy-9" style="edgeStyle=orthogonalEdgeStyle;rounded=0;orthogonalLoop=1;jettySize=auto;html=1;exitX=0.5;exitY=1;exitDx=0;exitDy=0;exitPerimeter=0;entryX=0.5;entryY=0;entryDx=0;entryDy=0;" edge="1" parent="1" source="5ps91yO-LM5b6C7GNlMy-1" target="5ps91yO-LM5b6C7GNlMy-3">
          <mxGeometry relative="1" as="geometry" />
        </mxCell>
        <mxCell id="5ps91yO-LM5b6C7GNlMy-1" value="&lt;font style=&quot;vertical-align: inherit;&quot;&gt;&lt;font style=&quot;vertical-align: inherit;&quot;&gt;INICIO&lt;/font&gt;&lt;/font&gt;" style="strokeWidth=2;html=1;shape=mxgraph.flowchart.start_1;whiteSpace=wrap;" vertex="1" parent="1">
          <mxGeometry x="364" y="30" width="100" height="60" as="geometry" />
        </mxCell>
        <mxCell id="5ps91yO-LM5b6C7GNlMy-2" value="&lt;font style=&quot;vertical-align: inherit;&quot;&gt;&lt;font style=&quot;vertical-align: inherit;&quot;&gt;FIM&lt;/font&gt;&lt;/font&gt;" style="strokeWidth=2;html=1;shape=mxgraph.flowchart.start_1;whiteSpace=wrap;" vertex="1" parent="1">
          <mxGeometry x="364" y="1000" width="100" height="60" as="geometry" />
        </mxCell>
        <mxCell id="5ps91yO-LM5b6C7GNlMy-10" style="edgeStyle=orthogonalEdgeStyle;rounded=0;orthogonalLoop=1;jettySize=auto;html=1;exitX=0.5;exitY=1;exitDx=0;exitDy=0;entryX=0.5;entryY=0;entryDx=0;entryDy=0;" edge="1" parent="1" source="5ps91yO-LM5b6C7GNlMy-3" target="5ps91yO-LM5b6C7GNlMy-4">
          <mxGeometry relative="1" as="geometry" />
        </mxCell>
        <mxCell id="5ps91yO-LM5b6C7GNlMy-3" value="&lt;font style=&quot;vertical-align: inherit;&quot;&gt;&lt;font style=&quot;vertical-align: inherit;&quot;&gt;CARGO&lt;/font&gt;&lt;/font&gt;" style="shape=parallelogram;html=1;strokeWidth=2;perimeter=parallelogramPerimeter;whiteSpace=wrap;rounded=1;arcSize=12;size=0.23;" vertex="1" parent="1">
          <mxGeometry x="331" y="110" width="166" height="50" as="geometry" />
        </mxCell>
        <mxCell id="5ps91yO-LM5b6C7GNlMy-11" style="edgeStyle=orthogonalEdgeStyle;rounded=0;orthogonalLoop=1;jettySize=auto;html=1;exitX=0.5;exitY=1;exitDx=0;exitDy=0;" edge="1" parent="1" source="5ps91yO-LM5b6C7GNlMy-4" target="5ps91yO-LM5b6C7GNlMy-5">
          <mxGeometry relative="1" as="geometry" />
        </mxCell>
        <mxCell id="5ps91yO-LM5b6C7GNlMy-4" value="&lt;font style=&quot;vertical-align: inherit;&quot;&gt;&lt;font style=&quot;vertical-align: inherit;&quot;&gt;DEPARTAMENTO&lt;/font&gt;&lt;/font&gt;" style="shape=parallelogram;html=1;strokeWidth=2;perimeter=parallelogramPerimeter;whiteSpace=wrap;rounded=1;arcSize=12;size=0.23;" vertex="1" parent="1">
          <mxGeometry x="331" y="190" width="166" height="50" as="geometry" />
        </mxCell>
        <mxCell id="5ps91yO-LM5b6C7GNlMy-12" style="edgeStyle=orthogonalEdgeStyle;rounded=0;orthogonalLoop=1;jettySize=auto;html=1;exitX=0.5;exitY=1;exitDx=0;exitDy=0;exitPerimeter=0;" edge="1" parent="1" source="5ps91yO-LM5b6C7GNlMy-5" target="5ps91yO-LM5b6C7GNlMy-6">
          <mxGeometry relative="1" as="geometry" />
        </mxCell>
        <mxCell id="5ps91yO-LM5b6C7GNlMy-26" value="&lt;font style=&quot;vertical-align: inherit;&quot;&gt;&lt;font style=&quot;vertical-align: inherit;&quot;&gt;SIM&lt;/font&gt;&lt;/font&gt;" style="edgeLabel;html=1;align=center;verticalAlign=middle;resizable=0;points=[];" vertex="1" connectable="0" parent="5ps91yO-LM5b6C7GNlMy-12">
          <mxGeometry x="0.6086" y="-1" relative="1" as="geometry">
            <mxPoint as="offset" />
          </mxGeometry>
        </mxCell>
        <mxCell id="5ps91yO-LM5b6C7GNlMy-5" value="&lt;font style=&quot;vertical-align: inherit;&quot;&gt;&lt;font style=&quot;vertical-align: inherit;&quot;&gt;CARGO =&lt;/font&gt;&lt;/font&gt;&lt;div&gt;&lt;font style=&quot;vertical-align: inherit;&quot;&gt;&lt;font style=&quot;vertical-align: inherit;&quot;&gt;&lt;font style=&quot;vertical-align: inherit;&quot;&gt;&lt;font style=&quot;vertical-align: inherit;&quot;&gt;GERENTE?&lt;/font&gt;&lt;/font&gt;&lt;/font&gt;&lt;/font&gt;&lt;/div&gt;" style="strokeWidth=2;html=1;shape=mxgraph.flowchart.decision;whiteSpace=wrap;" vertex="1" parent="1">
          <mxGeometry x="349" y="260" width="130" height="130" as="geometry" />
        </mxCell>
        <mxCell id="5ps91yO-LM5b6C7GNlMy-13" style="edgeStyle=orthogonalEdgeStyle;rounded=0;orthogonalLoop=1;jettySize=auto;html=1;exitX=0.5;exitY=1;exitDx=0;exitDy=0;exitPerimeter=0;" edge="1" parent="1" source="5ps91yO-LM5b6C7GNlMy-6" target="5ps91yO-LM5b6C7GNlMy-7">
          <mxGeometry relative="1" as="geometry" />
        </mxCell>
        <mxCell id="5ps91yO-LM5b6C7GNlMy-27" value="&lt;font style=&quot;vertical-align: inherit;&quot;&gt;&lt;font style=&quot;vertical-align: inherit;&quot;&gt;SIM&lt;/font&gt;&lt;/font&gt;" style="edgeLabel;html=1;align=center;verticalAlign=middle;resizable=0;points=[];" vertex="1" connectable="0" parent="5ps91yO-LM5b6C7GNlMy-13">
          <mxGeometry x="0.1469" y="2" relative="1" as="geometry">
            <mxPoint as="offset" />
          </mxGeometry>
        </mxCell>
        <mxCell id="5ps91yO-LM5b6C7GNlMy-6" value="&lt;font style=&quot;vertical-align: inherit;&quot;&gt;&lt;font style=&quot;vertical-align: inherit;&quot;&gt;DEPTO =&lt;/font&gt;&lt;/font&gt;&lt;div&gt;&lt;font style=&quot;vertical-align: inherit;&quot;&gt;&lt;font style=&quot;vertical-align: inherit;&quot;&gt;TIC?&lt;/font&gt;&lt;/font&gt;&lt;/div&gt;" style="strokeWidth=2;html=1;shape=mxgraph.flowchart.decision;whiteSpace=wrap;" vertex="1" parent="1">
          <mxGeometry x="349" y="410" width="130" height="130" as="geometry" />
        </mxCell>
        <mxCell id="5ps91yO-LM5b6C7GNlMy-7" value="&lt;font style=&quot;vertical-align: inherit;&quot;&gt;&lt;font style=&quot;vertical-align: inherit;&quot;&gt;&lt;font style=&quot;vertical-align: inherit;&quot;&gt;&lt;font style=&quot;vertical-align: inherit;&quot;&gt;IDADE&lt;/font&gt;&lt;/font&gt;&lt;/font&gt;&lt;/font&gt;" style="shape=parallelogram;html=1;strokeWidth=2;perimeter=parallelogramPerimeter;whiteSpace=wrap;rounded=1;arcSize=12;size=0.23;" vertex="1" parent="1">
          <mxGeometry x="331" y="560" width="166" height="50" as="geometry" />
        </mxCell>
        <mxCell id="5ps91yO-LM5b6C7GNlMy-8" value="&lt;font style=&quot;vertical-align: inherit;&quot;&gt;&lt;font style=&quot;vertical-align: inherit;&quot;&gt;IDADE &amp;gt;= 60?&lt;/font&gt;&lt;/font&gt;" style="strokeWidth=2;html=1;shape=mxgraph.flowchart.decision;whiteSpace=wrap;" vertex="1" parent="1">
          <mxGeometry x="349" y="630" width="130" height="130" as="geometry" />
        </mxCell>
        <mxCell id="5ps91yO-LM5b6C7GNlMy-14" style="edgeStyle=orthogonalEdgeStyle;rounded=0;orthogonalLoop=1;jettySize=auto;html=1;exitX=0.5;exitY=1;exitDx=0;exitDy=0;entryX=0.5;entryY=0;entryDx=0;entryDy=0;entryPerimeter=0;" edge="1" parent="1" source="5ps91yO-LM5b6C7GNlMy-7" target="5ps91yO-LM5b6C7GNlMy-8">
          <mxGeometry relative="1" as="geometry" />
        </mxCell>
        <mxCell id="5ps91yO-LM5b6C7GNlMy-15" value="" style="strokeWidth=2;html=1;shape=mxgraph.flowchart.start_2;whiteSpace=wrap;" vertex="1" parent="1">
          <mxGeometry x="399" y="900" width="30" height="30" as="geometry" />
        </mxCell>
        <mxCell id="5ps91yO-LM5b6C7GNlMy-16" value="" style="strokeWidth=2;html=1;shape=mxgraph.flowchart.start_2;whiteSpace=wrap;" vertex="1" parent="1">
          <mxGeometry x="620" y="370" width="30" height="30" as="geometry" />
        </mxCell>
        <mxCell id="5ps91yO-LM5b6C7GNlMy-18" style="edgeStyle=orthogonalEdgeStyle;rounded=0;orthogonalLoop=1;jettySize=auto;html=1;exitX=1;exitY=0.5;exitDx=0;exitDy=0;exitPerimeter=0;entryX=0.5;entryY=0;entryDx=0;entryDy=0;entryPerimeter=0;" edge="1" parent="1" source="5ps91yO-LM5b6C7GNlMy-5" target="5ps91yO-LM5b6C7GNlMy-16">
          <mxGeometry relative="1" as="geometry" />
        </mxCell>
        <mxCell id="5ps91yO-LM5b6C7GNlMy-20" value="&lt;font style=&quot;vertical-align: inherit;&quot;&gt;&lt;font style=&quot;vertical-align: inherit;&quot;&gt;NAO&lt;/font&gt;&lt;/font&gt;" style="edgeLabel;html=1;align=center;verticalAlign=middle;resizable=0;points=[];" vertex="1" connectable="0" parent="5ps91yO-LM5b6C7GNlMy-18">
          <mxGeometry x="-0.2836" relative="1" as="geometry">
            <mxPoint as="offset" />
          </mxGeometry>
        </mxCell>
        <mxCell id="5ps91yO-LM5b6C7GNlMy-19" style="edgeStyle=orthogonalEdgeStyle;rounded=0;orthogonalLoop=1;jettySize=auto;html=1;exitX=1;exitY=0.5;exitDx=0;exitDy=0;exitPerimeter=0;entryX=0.5;entryY=1;entryDx=0;entryDy=0;entryPerimeter=0;" edge="1" parent="1" source="5ps91yO-LM5b6C7GNlMy-6" target="5ps91yO-LM5b6C7GNlMy-16">
          <mxGeometry relative="1" as="geometry" />
        </mxCell>
        <mxCell id="5ps91yO-LM5b6C7GNlMy-21" value="&lt;font style=&quot;vertical-align: inherit;&quot;&gt;&lt;font style=&quot;vertical-align: inherit;&quot;&gt;NAO&lt;/font&gt;&lt;/font&gt;" style="edgeLabel;html=1;align=center;verticalAlign=middle;resizable=0;points=[];" vertex="1" connectable="0" parent="5ps91yO-LM5b6C7GNlMy-19">
          <mxGeometry x="-0.4113" y="2" relative="1" as="geometry">
            <mxPoint as="offset" />
          </mxGeometry>
        </mxCell>
        <mxCell id="5ps91yO-LM5b6C7GNlMy-25" style="edgeStyle=orthogonalEdgeStyle;rounded=0;orthogonalLoop=1;jettySize=auto;html=1;exitX=1;exitY=0.5;exitDx=0;exitDy=0;exitPerimeter=0;entryX=1;entryY=0.5;entryDx=0;entryDy=0;entryPerimeter=0;" edge="1" parent="1" source="5ps91yO-LM5b6C7GNlMy-16" target="5ps91yO-LM5b6C7GNlMy-2">
          <mxGeometry relative="1" as="geometry">
            <Array as="points">
              <mxPoint x="740" y="385" />
              <mxPoint x="740" y="1030" />
            </Array>
          </mxGeometry>
        </mxCell>
        <mxCell id="5ps91yO-LM5b6C7GNlMy-28" value="&lt;font style=&quot;vertical-align: inherit;&quot;&gt;&lt;font style=&quot;vertical-align: inherit;&quot;&gt;VOCÃ IRÃ RECEBER UM BÃNUS PLUS&lt;/font&gt;&lt;/font&gt;" style="strokeWidth=2;html=1;shape=mxgraph.flowchart.display;whiteSpace=wrap;" vertex="1" parent="1">
          <mxGeometry x="497" y="760" width="166.67" height="100" as="geometry" />
        </mxCell>
        <mxCell id="5ps91yO-LM5b6C7GNlMy-29" value="&lt;font style=&quot;vertical-align: inherit;&quot;&gt;&lt;font style=&quot;vertical-align: inherit;&quot;&gt;VOCÃ IRÃ RECEBER UM BÃNUS&lt;/font&gt;&lt;/font&gt;" style="strokeWidth=2;html=1;shape=mxgraph.flowchart.display;whiteSpace=wrap;" vertex="1" parent="1">
          <mxGeometry x="164.32999999999998" y="760" width="166.67" height="100" as="geometry" />
        </mxCell>
        <mxCell id="5ps91yO-LM5b6C7GNlMy-30" style="edgeStyle=orthogonalEdgeStyle;rounded=0;orthogonalLoop=1;jettySize=auto;html=1;exitX=0.5;exitY=1;exitDx=0;exitDy=0;exitPerimeter=0;entryX=1;entryY=0.5;entryDx=0;entryDy=0;entryPerimeter=0;" edge="1" parent="1" source="5ps91yO-LM5b6C7GNlMy-28" target="5ps91yO-LM5b6C7GNlMy-15">
          <mxGeometry relative="1" as="geometry" />
        </mxCell>
        <mxCell id="5ps91yO-LM5b6C7GNlMy-31" style="edgeStyle=orthogonalEdgeStyle;rounded=0;orthogonalLoop=1;jettySize=auto;html=1;exitX=0.5;exitY=1;exitDx=0;exitDy=0;exitPerimeter=0;entryX=0;entryY=0.5;entryDx=0;entryDy=0;entryPerimeter=0;" edge="1" parent="1" source="5ps91yO-LM5b6C7GNlMy-29" target="5ps91yO-LM5b6C7GNlMy-15">
          <mxGeometry relative="1" as="geometry" />
        </mxCell>
        <mxCell id="5ps91yO-LM5b6C7GNlMy-32" style="edgeStyle=orthogonalEdgeStyle;rounded=0;orthogonalLoop=1;jettySize=auto;html=1;exitX=0.5;exitY=1;exitDx=0;exitDy=0;exitPerimeter=0;entryX=0.5;entryY=0;entryDx=0;entryDy=0;entryPerimeter=0;" edge="1" parent="1" source="5ps91yO-LM5b6C7GNlMy-15" target="5ps91yO-LM5b6C7GNlMy-2">
          <mxGeometry relative="1" as="geometry" />
        </mxCell>
        <mxCell id="5ps91yO-LM5b6C7GNlMy-33" style="edgeStyle=orthogonalEdgeStyle;rounded=0;orthogonalLoop=1;jettySize=auto;html=1;exitX=1;exitY=0.5;exitDx=0;exitDy=0;exitPerimeter=0;entryX=0.5;entryY=0;entryDx=0;entryDy=0;entryPerimeter=0;" edge="1" parent="1" source="5ps91yO-LM5b6C7GNlMy-8" target="5ps91yO-LM5b6C7GNlMy-28">
          <mxGeometry relative="1" as="geometry" />
        </mxCell>
        <mxCell id="5ps91yO-LM5b6C7GNlMy-34" value="&lt;font style=&quot;vertical-align: inherit;&quot;&gt;&lt;font style=&quot;vertical-align: inherit;&quot;&gt;SIM&lt;/font&gt;&lt;/font&gt;" style="edgeLabel;html=1;align=center;verticalAlign=middle;resizable=0;points=[];" vertex="1" connectable="0" parent="5ps91yO-LM5b6C7GNlMy-33">
          <mxGeometry x="-0.3605" y="3" relative="1" as="geometry">
            <mxPoint x="-1" as="offset" />
          </mxGeometry>
        </mxCell>
        <mxCell id="5ps91yO-LM5b6C7GNlMy-35" style="edgeStyle=orthogonalEdgeStyle;rounded=0;orthogonalLoop=1;jettySize=auto;html=1;exitX=0;exitY=0.5;exitDx=0;exitDy=0;exitPerimeter=0;entryX=0.5;entryY=0;entryDx=0;entryDy=0;entryPerimeter=0;" edge="1" parent="1" source="5ps91yO-LM5b6C7GNlMy-8" target="5ps91yO-LM5b6C7GNlMy-29">
          <mxGeometry relative="1" as="geometry" />
        </mxCell>
        <mxCell id="5ps91yO-LM5b6C7GNlMy-36" value="&lt;font style=&quot;vertical-align: inherit;&quot;&gt;&lt;font style=&quot;vertical-align: inherit;&quot;&gt;NAO&lt;/font&gt;&lt;/font&gt;" style="edgeLabel;html=1;align=center;verticalAlign=middle;resizable=0;points=[];" vertex="1" connectable="0" parent="5ps91yO-LM5b6C7GNlMy-35">
          <mxGeometry x="-0.3901" y="-3" relative="1" as="geometry">
            <mxPoint as="offset" />
          </mxGeometry>
        </mxCell>
      </root>
    </mxGraphModel>
  </diagram>
</mxfile>
